<?xml version="1.0" encoding="utf-8"?>
<!-- Generator: Adobe Illustrator 23.0.1, SVG Export Plug-In . SVG Version: 6.00 Build 0)  -->
<svg version="1.1" xmlns="http://www.w3.org/2000/svg" xmlns:xlink="http://www.w3.org/1999/xlink" x="0px" y="0px"
	 viewBox="0 0 360 360" style="enable-background:new 0 0 360 360;" xml:space="preserve">
<style type="text/css">
	.st0{enable-background:new    ;}
	.st1{fill:none;}
	.st2{fill:#C1C0BF;}
</style>
<g id="Background_xA0_Image_1_">
</g>
<g id="Rectangle_1_1_" class="st0">
</g>
<g id="Vector_Smart_Object_xA0_Image_1_">
	<path class="st1" d="M478.1,301.6c-13.2,24.1-38.8,40.4-68.3,40.4c-29.4,0-55-16.3-68.3-40.4H478.1z M323.3,375.7
		c0,40.9-33.2,74.1-74.1,74.1h-63.7V301.6h63.8C290.1,301.6,323.3,334.7,323.3,375.7z M278.2,375.7c0-16.3-12.4-30.6-30.5-30.6
		l-18.8,0v61.2h18.8C265.8,406.3,278.2,392,278.2,375.7z M377,449.8c-0.9-3.1-1.5-6.3-1.5-9.7c0-18.9,15.4-34.3,34.3-34.3
		c18.9,0,34.3,15.4,34.3,34.3c0,3.4-0.6,6.6-1.5,9.7h46.6c0.4-3.2,0.7-6.4,0.7-9.7c0-44.2-35.8-80.1-80.1-80.1
		c-44.2,0-80.1,35.8-80.1,80.1c0,3.3,0.2,6.5,0.6,9.7H377z"/>
	<g>
		<path class="st2" d="M255.5,140.2c-7.1,12.9-20.9,21.7-36.7,21.7c-15.8,0-29.6-8.8-36.7-21.7H255.5z"/>
		<g>
			<path class="st2" d="M132.5,140.2H98.2v79.6h34.3c22,0,39.8-17.8,39.8-39.8C172.3,158,154.5,140.2,132.5,140.2z M131.7,196.4
				h-10.1v-32.9l10.1,0c9.7,0,16.4,7.7,16.4,16.4C148,188.8,141.4,196.4,131.7,196.4z"/>
		</g>
		<path class="st2" d="M201.1,219.8c-0.5-1.7-0.8-3.4-0.8-5.2c0-10.2,8.3-18.4,18.4-18.4c10.2,0,18.4,8.3,18.4,18.4
			c0,1.8-0.3,3.6-0.8,5.2h25c0.2-1.7,0.4-3.5,0.4-5.2c0-23.8-19.3-43-43-43c-23.8,0-43,19.3-43,43c0,1.8,0.1,3.5,0.3,5.2H201.1z"/>
	</g>
</g>
</svg>
