<svg
    xmlns="http://www.w3.org/2000/svg"
    viewBox="0 0 24 24"
    id="vector">
    <path
        id="path"
        d="M 9.2 11.5 L 4.4 11.5 C 3.1 11.5 2.1 10.4 2.1 9.2 L 2.1 4.4 C 2.1 3.1 3.2 2.1 4.4 2.1 L 9.2 2.1 C 10.5 2.1 11.5 3.2 11.5 4.4 L 11.5 9.2 C 11.5 10.5 10.5 11.5 9.2 11.5 Z M 4.4 3.1 C 3.7 3.1 3.1 3.6 3.1 4.4 L 3.1 9.2 C 3.1 9.9 3.6 10.5 4.4 10.5 L 9.2 10.5 C 9.9 10.5 10.5 9.8 10.5 9.2 L 10.5 4.4 C 10.5 3.7 10 3.1 9.2 3.1 L 4.4 3.1 Z"
        fill="#000000"/>
    <path
        id="path_1"
        d="M 19.6 11.5 L 14.8 11.5 C 13.5 11.5 12.5 10.4 12.5 9.2 L 12.5 4.4 C 12.5 3.1 13.6 2.1 14.8 2.1 L 19.6 2.1 C 20.9 2.1 22 3.2 22 4.4 L 22 9.2 C 22 10.5 20.9 11.5 19.6 11.5 Z M 14.8 3.1 C 14.1 3.1 13.5 3.6 13.5 4.4 L 13.5 9.2 C 13.5 9.9 14 10.5 14.8 10.5 L 19.6 10.5 C 20.3 10.5 20.9 9.8 20.9 9.2 L 20.9 4.4 C 20.9 3.7 20.4 3.1 19.6 3.1 L 14.8 3.1 Z"
        fill="#000000"/>
    <path
        id="path_2"
        d="M 9.2 21.9 L 4.4 21.9 C 3.1 21.9 2.1 20.8 2.1 19.6 L 2.1 14.8 C 2.1 13.5 3.2 12.4 4.4 12.4 L 9.2 12.4 C 10.5 12.4 11.5 13.5 11.5 14.8 L 11.5 19.6 C 11.5 20.9 10.5 21.9 9.2 21.9 Z M 4.4 13.6 C 3.7 13.6 3.1 14.1 3.1 14.9 L 3.1 19.7 C 3.1 20.4 3.6 21 4.4 21 L 9.2 21 C 9.9 21 10.5 20.5 10.5 19.7 L 10.5 14.9 C 10.5 14.2 10 13.6 9.2 13.6 L 4.4 13.6 Z"
        fill="#000000"/>
    <path
        id="path_3"
        d="M 19.6 21.9 L 14.8 21.9 C 13.5 21.9 12.5 20.8 12.5 19.6 L 12.5 14.8 C 12.5 13.5 13.6 12.4 14.8 12.4 L 19.6 12.4 C 20.9 12.4 22 13.5 22 14.8 L 22 19.6 C 22 20.9 20.9 21.9 19.6 21.9 Z M 14.8 13.6 C 14.1 13.6 13.5 14.1 13.5 14.9 L 13.5 19.7 C 13.5 20.4 14 21 14.8 21 L 19.6 21 C 20.3 21 20.9 20.5 20.9 19.7 L 20.9 14.9 C 20.9 14.2 20.4 13.6 19.6 13.6 L 14.8 13.6 Z"
        fill="#000000"/>
</svg>
