<?xml version="1.0" encoding="utf-8"?>
<!-- Generator: Adobe Illustrator 17.0.0, SVG Export Plug-In . SVG Version: 6.00 Build 0)  -->
<!DOCTYPE svg PUBLIC "-//W3C//DTD SVG 1.1//EN" "http://www.w3.org/Graphics/SVG/1.1/DTD/svg11.dtd">
<svg version="1.1" id="Layer_1" xmlns="http://www.w3.org/2000/svg" xmlns:xlink="http://www.w3.org/1999/xlink" x="0px" y="0px"
	 width="561.373px" height="70px" viewBox="0 0 561.373 70" enable-background="new 0 0 561.373 70" xml:space="preserve">
<path d="M108.964,1.701c-4.57,8.302-13.4,13.929-23.545,13.929c-10.147,0-18.977-5.628-23.547-13.929H108.964z M55.574,27.265
	c0,14.118-11.446,25.561-25.563,25.561H8.02V1.701h21.995C44.13,1.704,55.574,13.147,55.574,27.265z M40.009,27.265
	c0-5.63-4.276-10.559-10.513-10.559l-6.469-0.001v21.117h6.469C35.732,37.822,40.009,32.892,40.009,27.265z M74.102,52.826
	c-0.324-1.064-0.517-2.182-0.517-3.351c0-6.524,5.309-11.833,11.834-11.833c6.523,0,11.832,5.309,11.832,11.833
	c0,1.169-0.193,2.287-0.515,3.351h16.076c0.137-1.099,0.225-2.215,0.225-3.351c0-15.252-12.365-27.617-27.617-27.617
	c-15.254,0-27.619,12.365-27.619,27.617c0,1.135,0.083,2.252,0.216,3.351H74.102z M138.599,1.701h15.58
	c16.6,0,26.824,11.063,26.824,25.56c0,14.566-11.205,25.563-26.54,25.563h-15.865V1.701z M146.231,8.704v37.045h7.464
	c11.762,0,19.606-7.984,19.606-18.488c0-10.715-7.073-18.557-19.889-18.557H146.231z M185.377,35.314
	c0-11.205,8.332-18.207,17.51-18.207c4.62,0,9.03,2.032,11.621,5.253v-4.552h7.496v35.016h-7.496v-4.833
	c-2.66,3.43-7.073,5.531-11.693,5.531C193.919,53.522,185.377,46.448,185.377,35.314z M214.93,35.243
	c0-6.234-4.694-11.343-11.066-11.343c-6.229,0-11.066,4.969-11.066,11.343s4.837,11.415,11.066,11.415
	C210.236,46.658,214.93,41.547,214.93,35.243z M233.46,2.328c2.941,0,5.042,2.103,5.042,5.046c0,2.939-2.101,5.042-5.042,5.042
	c-3.009,0-5.04-2.103-5.04-5.042C228.42,4.431,230.519,2.328,233.46,2.328z M229.677,17.807h7.565v35.016h-7.565V17.807z
	 M244.908,1.701h7.493v51.123h-7.493V1.701z M271.201,51.002l-14.495-33.195h8.053l10.224,24.3l9.662-24.3h7.912L271.413,69h-7.705
	L271.201,51.002z M306.655,27.261C306.655,12.765,318.353,1,332.845,1c14.569,0,26.264,11.765,26.264,26.261
	c0,14.496-11.695,26.261-26.264,26.261C318.353,53.523,306.655,41.758,306.655,27.261z M351.476,27.261
	c0-10.366-8.123-18.906-18.631-18.906c-10.434,0-18.555,8.541-18.555,18.906c0,10.364,8.122,18.837,18.555,18.837
	C343.353,46.098,351.476,37.625,351.476,27.261z M372.9,48.06v4.763h-7.354V1.701h7.424V22.5c2.589-3.293,6.93-5.392,11.626-5.392
	c9.172,0,17.432,7.003,17.432,18.206c0,11.136-8.471,18.209-17.364,18.209C379.973,53.523,375.491,51.492,372.9,48.06z
	 M394.607,35.245c0-6.373-4.831-11.344-11.063-11.344c-6.302,0-10.994,5.11-10.994,11.344c0,6.301,4.692,11.414,10.994,11.414
	C389.775,46.659,394.607,41.619,394.607,35.245z M406.3,7.374c0,2.94,2.031,5.042,5.042,5.042c2.943,0,5.046-2.102,5.046-5.042
	c0-2.942-2.103-5.042-5.046-5.042C408.403,2.332,406.3,4.432,406.3,7.374z M407.567,68.93h7.558V17.807h-7.558V68.93z
	 M420.656,35.456c0-10.295,7.913-18.349,18.207-18.349c10.363,0,17.997,7.492,17.997,17.859v2.939h-28.992
	c0.982,5.393,5.186,8.963,11.275,8.963c4.761,0,8.405-2.519,10.223-6.298l6.165,3.427c-3.08,5.745-8.614,9.525-16.387,9.525
	C428.079,53.523,420.656,45.607,420.656,35.456z M428.217,31.533h21.009c-1.119-5.041-4.972-7.841-10.363-7.841
	C433.683,23.692,429.618,26.911,428.217,31.533z M479.616,53.523c8.197,0,14.007-4.552,16.811-10.996l-6.793-2.87
	c-1.613,3.921-5.114,6.862-9.875,6.862c-6.303,0-11.064-5.042-11.064-11.206c0-6.23,4.691-11.203,10.922-11.203
	c4.552,0,8.125,2.52,9.877,6.583l6.721-2.871c-2.66-6.304-8.823-10.715-16.598-10.715c-10.221,0-18.276,7.913-18.276,18.206
	C461.34,45.399,469.254,53.523,479.616,53.523z M518.337,52.823h1.616V45.47h-1.685c-5.741,0-9.311-3.851-9.311-10.156V24.529
	h10.504v-6.721h-10.504V6.882h-7.565v28.363C501.393,46.098,507.766,52.823,518.337,52.823z M538.927,53.523
	c9.734,0.07,14.427-5.952,14.427-11.205c0-7.352-6.653-9.315-12.535-10.574c-5.323-1.191-8.334-1.752-8.334-4.272
	c0-2.31,1.962-4.202,6.093-4.202c3.71,0,6.303,1.474,7.981,3.992l6.305-3.43c-2.943-4.273-7.495-6.794-14.286-6.794
	c-8.333-0.07-13.656,5.041-13.656,10.574c0,7.212,6.303,9.174,12.255,10.365c4.48,0.98,8.682,1.611,8.682,4.48
	c0,2.453-2.24,4.554-6.583,4.554c-4.2,0-7.212-1.752-9.242-5.044l-6.723,3.641C526.323,50.792,531.364,53.523,538.927,53.523z"/>
</svg>
