<?xml version="1.0" encoding="utf-8"?>
<!-- Generator: Adobe Illustrator 17.0.0, SVG Export Plug-In . SVG Version: 6.00 Build 0)  -->
<!DOCTYPE svg PUBLIC "-//W3C//DTD SVG 1.1//EN" "http://www.w3.org/Graphics/SVG/1.1/DTD/svg11.dtd">
<svg version="1.1" id="Layer_1" xmlns="http://www.w3.org/2000/svg" xmlns:xlink="http://www.w3.org/1999/xlink" x="0px" y="0px"
	 width="20px" height="20px" viewBox="0 0 20 20" enable-background="new 0 0 20 20" xml:space="preserve">
<path d="M17.378,6.106c-0.696,1.265-2.041,2.122-3.587,2.122c-1.546,0-2.891-0.857-3.587-2.122H17.378z M9.245,10
	c0,2.151-1.744,3.894-3.894,3.894h-3.35V6.106l3.351,0C7.502,6.106,9.245,7.85,9.245,10z M6.874,10c0-0.858-0.651-1.608-1.601-1.608
	l-0.985,0v3.217h0.985C6.223,11.608,6.874,10.857,6.874,10z M12.068,13.894c-0.049-0.162-0.079-0.332-0.079-0.51
	c0-0.994,0.809-1.802,1.803-1.802c0.994,0,1.802,0.809,1.802,1.802c0,0.178-0.029,0.348-0.079,0.51h2.449
	c0.021-0.167,0.034-0.337,0.034-0.51c0-2.323-1.884-4.207-4.207-4.207c-2.324,0-4.207,1.884-4.207,4.207
	c0,0.173,0.013,0.343,0.033,0.51H12.068z"/>
</svg>
