<svg
    xmlns="http://www.w3.org/2000/svg"
    viewBox="0 0 24 24"
    id="vector">
    <path
        id="path"
        d="M 7.4 5.9 L 5.1 5.9 C 4.6 5.9 4.3 5.5 4.3 5.1 C 4.3 4.6 4.7 4.3 5.1 4.3 L 7.3 4.3 C 7.8 4.3 8.1 4.7 8.1 5.1 C 8.2 5.6 7.8 5.9 7.4 5.9"
        fill="#000000"/>
    <path
        id="path_1"
        d="M 7.3 20.9 L 4.5 20.9 C 3.9 20.9 3.4 20.4 3.4 19.8 L 3.4 4.3 C 3.4 3.7 3.9 3.2 4.5 3.2 L 11.2 3.2 C 11.8 3.2 12.3 3.7 12.3 4.3 L 12.3 6.4 L 13.4 6.4 L 13.4 4.3 C 13.4 3.1 12.4 2.1 11.2 2.1 L 4.5 2.1 C 3.3 2 2.2 3 2.2 4.3 L 2.2 19.8 C 2.2 21 3.2 22 4.4 22 L 7.2 22 L 7.2 20.9 Z"
        fill="#000000"/>
    <path
        id="path_2"
        d="M 14.1 7.4 C 9.9 7.4 6.4 10.6 6.4 14.6 C 6.4 18.6 9.8 21.8 14.1 21.8 C 18.3 21.8 21.8 18.6 21.8 14.6 C 21.8 10.6 18.3 7.4 14.1 7.4 Z M 11.2 18.1 L 12.2 14.6 L 14.7 16.8 L 11.2 18.1 Z M 15.4 16.4 L 12.7 13.9 L 16.4 10.3 C 17.6 10.9 18.5 11.8 18.9 13 L 15.4 16.4 Z"
        fill="#000000"/>
</svg>
